<?xml version="1.0" encoding="UTF-8" standalone="no"?>
<svg
   xmlns:dc="http://purl.org/dc/elements/1.1/"
   xmlns:cc="http://creativecommons.org/ns#"
   xmlns:rdf="http://www.w3.org/1999/02/22-rdf-syntax-ns#"
   xmlns:svg="http://www.w3.org/2000/svg"
   xmlns="http://www.w3.org/2000/svg"
   viewBox="0 0 576 283.98267"
   height="283.98267"
   width="576"
   xml:space="preserve"
   version="1.1"
   id="svg2"><metadata
     id="metadata8"><rdf:RDF><cc:Work
         rdf:about=""><dc:format>image/svg+xml</dc:format><dc:type
           rdf:resource="http://purl.org/dc/dcmitype/StillImage" /></cc:Work></rdf:RDF></metadata><defs
     id="defs6"><clipPath
       id="clipPath16"
       clipPathUnits="userSpaceOnUse"><path
         id="path18"
         d="m 0,212.987 432,0 L 432,0 0,0 0,212.987 Z" /></clipPath></defs><g
     transform="matrix(1.3333333,0,0,-1.3333333,0,283.98267)"
     id="g10"><g
       id="g12"><g
         clip-path="url(#clipPath16)"
         id="g14"><g
           transform="translate(227.2953,82.9144)"
           id="g20"><path
             id="path22"
             style="fill:#434554;fill-opacity:1;fill-rule:nonzero;stroke:none"
             d="M 0,0 C -0.485,1.005 -1.092,1.612 -2.357,1.542 -3.05,1.49 -3.726,1.49 -4.385,1.525 l 0,-24.487 12.114,0 0.07,6.308 c 0.086,-0.087 0.173,-0.156 0.277,-0.243 L 0,0 Z M 11.091,61.695 C 7.868,60.707 5.06,59.252 2.668,57.328 0.294,55.404 -1.577,52.995 -2.929,50.119 c -1.335,-2.877 -2.01,-6.239 -2.01,-10.035 0,-2.738 0.329,-5.199 1.005,-7.347 0.433,0 0.884,0 1.334,-0.035 4.212,-0.26 4.212,-0.26 5.598,3.76 l 9.22,25.545 C 11.836,61.903 11.455,61.799 11.091,61.695 M 53.585,10.346 c -1.352,2.79 -3.103,5.147 -5.269,7.071 -2.184,1.923 -4.662,3.518 -7.469,4.783 -2.825,1.248 -5.667,2.357 -8.579,3.345 -2.894,0.97 -5.753,1.888 -8.561,2.755 -2.807,0.849 -5.303,1.854 -7.469,2.998 -2.184,1.127 -3.934,2.496 -5.285,4.073 -1.335,1.577 -2.011,3.604 -2.011,6.065 0,1.439 0.312,2.79 0.953,4.073 0.641,1.282 1.56,2.391 2.791,3.31 1.23,0.936 2.72,1.681 4.471,2.235 1.733,0.555 3.743,0.832 6.013,0.832 3.397,0 6.395,-0.606 8.96,-1.837 2.565,-1.23 4.922,-3.102 7.053,-5.597 l 0,-6.222 11.958,0 0,24.851 -11.958,0 0,-6.169 c -2.374,2.062 -5.043,3.622 -8.006,4.662 -2.981,1.057 -6.135,1.577 -9.497,1.577 -2.218,0 -4.333,-0.156 -6.36,-0.503 L 4.61,32.945 c -0.503,-1.37 -0.277,-2.253 0.953,-3.207 4.142,-3.24 6.308,-7.521 6.568,-11.853 2.253,-0.867 4.558,-1.647 6.932,-2.34 3.016,-0.884 5.857,-1.768 8.492,-2.651 2.651,-0.884 4.939,-1.907 6.88,-3.068 1.923,-1.161 3.466,-2.565 4.592,-4.194 1.144,-1.611 1.699,-3.639 1.699,-6.065 0,-1.803 -0.347,-3.484 -1.058,-5.009 -0.71,-1.542 -1.715,-2.859 -3.015,-3.968 -1.282,-1.127 -2.842,-1.993 -4.662,-2.617 -1.819,-0.641 -3.847,-0.953 -6.065,-0.953 -4.108,0 -7.591,0.936 -10.468,2.807 -2.876,1.855 -5.459,4.61 -7.729,8.249 l 0,7.782 -0.607,0 C 6.135,4.922 4.991,4.09 3.708,3.345 2.218,2.478 2.08,1.75 2.773,0.364 l 9.826,-20.588 c 4.54,-2.721 9.67,-4.073 15.389,-4.073 3.674,0 7.192,0.555 10.554,1.664 3.345,1.126 6.291,2.721 8.804,4.818 2.53,2.079 4.54,4.644 6.031,7.66 1.49,3.032 2.235,6.464 2.235,10.328 0,3.986 -0.676,7.383 -2.027,10.173 m 10.086,52.735 0,-15.406 11.334,0 0,5.494 17.78,0 0,-66.149 -12.616,0 0,-9.982 40.587,0 0,9.982 -12.46,0 0,66.149 17.555,0 0,-5.494 11.334,0 0,15.406 -73.514,0 z m -167.132,-67.31 c -0.658,-1.871 -1.75,-3.448 -3.292,-4.748 -1.543,-1.3 -3.553,-2.288 -6.049,-2.963 -2.512,-0.694 -5.597,-1.04 -9.288,-1.04 l -9.775,0 0,29.184 10.208,0 c 6.568,0 11.403,-1.283 14.522,-3.83 3.102,-2.548 4.662,-5.962 4.662,-10.26 0,-2.374 -0.329,-4.471 -0.988,-6.343 m -28.404,57.398 6.672,0 c 3.432,0 6.378,-0.278 8.804,-0.815 2.444,-0.537 4.419,-1.369 5.962,-2.478 1.525,-1.109 2.634,-2.496 3.327,-4.142 0.676,-1.664 1.022,-3.587 1.022,-5.806 0,-4.211 -1.369,-7.417 -4.107,-9.635 -2.738,-2.218 -7.209,-3.327 -13.379,-3.327 l -8.301,0 0,26.203 z m 40.899,-38.456 c -2.946,3.588 -6.897,6.17 -11.854,7.729 1.786,0.746 3.449,1.699 4.957,2.86 1.508,1.161 2.807,2.495 3.899,4.038 1.075,1.525 1.924,3.241 2.548,5.13 0.606,1.888 0.918,3.951 0.918,6.169 0,3.431 -0.658,6.551 -1.958,9.306 -1.3,2.756 -3.189,5.13 -5.702,7.088 -2.495,1.959 -5.615,3.449 -9.341,4.489 -3.725,1.04 -8.024,1.559 -12.893,1.559 l -37.953,0 0,-9.912 10.987,0 0,-66.149 -10.987,0 0,-9.982 39.235,0 c 6.378,0 11.646,0.727 15.823,2.2 4.176,1.456 7.504,3.363 9.982,5.702 2.478,2.34 4.228,4.939 5.251,7.816 1.005,2.894 1.525,5.771 1.525,8.648 0,5.285 -1.473,9.722 -4.437,13.309 m 69.234,-19.461 0,-8.232 -35.267,0 0,28.75 23.153,0 0,-4.523 7.227,0 0,19.826 -7.227,0 0,-4.749 -23.222,0 0,26.845 35.197,0 0,-7.799 11.75,0 0,17.711 -73.566,0 0,-9.912 11.178,0 0,-66.149 -11.178,0 0,-9.982 73.705,0 0,18.214 -11.75,0 z" /></g><g
           transform="translate(256.635,35.4299)"
           id="g24"><path
             id="path26"
             style="fill:#8dc63f;fill-opacity:1;fill-rule:nonzero;stroke:none"
             d="m 0,0 c -3.57,-4.523 -10.675,-5.095 -14.835,-1.3 -4.627,4.246 -4.991,10.936 -0.658,15.129 1.213,1.179 1.265,2.097 0.572,3.501 l -6.343,13.258 c 1.421,-1.266 2.929,-2.375 4.523,-3.328 l 3.865,-8.076 c 0.797,-1.802 1.716,-2.426 3.778,-2.166 4.315,0.537 8.491,-1.819 10.346,-5.684 C 3.154,7.365 2.756,3.483 0,0" /></g><g
           transform="translate(234.4177,88.772)"
           id="g28"><path
             id="path30"
             style="fill:#8dc63f;fill-opacity:1;fill-rule:nonzero;stroke:none"
             d="m 0,0 -11.507,0 0,-4.333 c -4.783,0.226 -8.7,2.427 -11.785,6.361 -0.745,0.953 -1.472,1.039 -2.443,0.658 -4.332,-1.716 -8.648,-3.466 -13.015,-5.13 -1.404,-0.519 -1.231,-1.594 -1.282,-2.703 -0.364,-7.4 -7.192,-12.027 -14.072,-9.566 -4.039,1.438 -6.742,5.233 -6.863,9.618 -0.104,4.072 2.53,8.076 6.412,9.722 4.055,1.733 8.804,1.057 11.438,-2.391 1.958,-2.565 3.656,-2.167 6.013,-1.144 l 9.272,3.604 c 1.802,0.624 2.374,1.404 1.941,3.449 -2.097,9.705 5.164,18.509 14.835,18.734 0.259,-0.884 0.589,-1.716 0.97,-2.496 1.334,-2.686 3.085,-4.973 5.286,-6.862 2.183,-1.872 4.731,-3.432 7.642,-4.627 C 3.553,12.599 4.28,12.304 5.009,12.027 5.251,7.677 3.57,3.31 0,0" /></g><g
           transform="translate(258.1945,162.9274)"
           id="g32"><path
             id="path34"
             style="fill:#8dc63f;fill-opacity:1;fill-rule:nonzero;stroke:none"
             d="m 0,0 c -1.508,-4.055 -4.8,-6.1 -8.942,-6.326 -2.149,-0.138 -3.068,-0.918 -3.674,-2.824 l -2.964,-8.215 c -1.057,-0.156 -2.097,-0.381 -3.101,-0.641 l 3.656,10.138 c 0.607,1.612 0.468,2.652 -1.022,3.83 -4.801,3.795 -5.182,11.161 -0.988,15.355 4.523,4.488 11.42,4.228 15.527,-0.624 C 1.23,7.469 1.421,3.761 0,0" /></g></g></g></g></svg>